PathFileType	4	(X/Y/Z)	/Users/itak/Documents/Research/Walk-IL/dataset/trc/00531_00183.trc
DataRate	CameraRate	NumFrames	NumMarkers	Units	OrigDataRate	OrigDataStartFrame	OrigNumFrames
100.000000	100.000000	4	53	mm	100.000000	177	472
Frame#	Time	RPSI			LPSI			L3			STRN			T10			C7			CLAV			RBAK			LBAK			LSHO			LUPA			LAEL			LAOL			LWTS			LWPS			LFRA			LIFD			LHPS			LHTS			RSHO			RUPA			RAEL			RAOL			RWTS			RWPS			RFRA			RIFD			RHTS			RHPS			RBHD			LFHD			RFHD			LBHD			LHIP			RHIP			RASI			LASI			LKNE			LTHI			LANK			LTIP			LTOE			LMT1			LMT5			LHEE			RKNE			RTHI			RANK			RTIP			RTOE			RMT1			RMT5			RHEE			
		X1	Y1	Z1	X2	Y2	Z2	X3	Y3	Z3	X4	Y4	Z4	X5	Y5	Z5	X6	Y6	Z6	X7	Y7	Z7	X8	Y8	Z8	X9	Y9	Z9	X10	Y10	Z10	X11	Y11	Z11	X12	Y12	Z12	X13	Y13	Z13	X14	Y14	Z14	X15	Y15	Z15	X16	Y16	Z16	X17	Y17	Z17	X18	Y18	Z18	X19	Y19	Z19	X20	Y20	Z20	X21	Y21	Z21	X22	Y22	Z22	X23	Y23	Z23	X24	Y24	Z24	X25	Y25	Z25	X26	Y26	Z26	X27	Y27	Z27	X28	Y28	Z28	X29	Y29	Z29	X30	Y30	Z30	X31	Y31	Z31	X32	Y32	Z32	X33	Y33	Z33	X34	Y34	Z34	X35	Y35	Z35	X36	Y36	Z36	X37	Y37	Z37	X38	Y38	Z38	X39	Y39	Z39	X40	Y40	Z40	X41	Y41	Z41	X42	Y42	Z42	X43	Y43	Z43	X44	Y44	Z44	X45	Y45	Z45	X46	Y46	Z46	X47	Y47	Z47	X48	Y48	Z48	X49	Y49	Z49	X50	Y50	Z50	X51	Y51	Z51	X52	Y52	Z52	X53	Y53	Z53	

178	1.77	-859.519775390625	954.9656982421875	-268.0507202148438	-804.6738891601562	940.2808837890625	-377.7254028320312	-825.6608276367188	1024.240844726562	-330.3547058105469	-622.9716796875	1178.035766601562	-231.6627044677734	-832.2344360351562	1128.630859375	-330.8921203613281	-789.0172729492188	1358.007690429688	-306.8922119140625	-651.0264892578125	1275.099365234375	-244.1069030761719	-874.9075317382812	1238.417114257812	-255.7526092529297	-776.6917114257812	1305.569946289062	-397.8215942382812	-659.1781005859375	1350.805419921875	-422.6150207519531	-645.8504028320312	1225.8720703125	-486.5916748046875	-627.256591796875	1017.47998046875	-513.9031982421875	-721.9924926757812	1007.04248046875	-481.7279357910156	-561.1688842773438	827.8976440429688	-458.4741516113281	-619.7202758789062	796.0820922851562	-524.6723022460938	-612.5656127929688	932.9424438476562	-514.1649169921875	-563.013916015625	670.3943481445312	-455.9382019042969	-599.3984985351562	741.4521484375	-514.05029296875	-546.5403442382812	750.674072265625	-477.2023620605469	-805.05517578125	1349.606689453125	-150.5764770507812	-854.1978759765625	1285.87353515625	-113.9510803222656	-924.2311401367188	1026.897338867188	-97.78186798095703	-941.159912109375	1020.206665039062	-162.8385467529297	-868.6675415039062	809.83203125	-68.63032531738281	-955.6388549804688	803.19189453125	-93.56828308105469	-935.6881103515625	973.6865234375	-93.87281036376953	-893.8040161132812	652.1907958984375	-82.16366577148438	-890.4463500976562	716.2935180664062	-51.14252853393555	-951.4303588867188	726.5795288085938	-85.37598419189453	-794.3488159179688	1506.347900390625	-209.2621765136719	-617.2357788085938	1575.388671875	-272.9764099121094	-678.8316650390625	1564.870239257812	-161.6141662597656	-729.9900512695312	1515.527709960938	-355.0802001953125	-651.3604736328125	855.3858032226562	-438.1257934570312	-820.3389282226562	870.2428588867188	-100.8491058349609	-703.5763549804688	913.4356689453125	-120.1591873168945	-602.0863647460938	899.4306640625	-337.5829467773438	-626.1187133789062	433.7977905273438	-368.9238891601562	-616.8076782226562	593.3087768554688	-388.2354431152344	-942.3975830078125	198.2801666259766	-536.4881591796875	-717.1417236328125	335.5457763671875	-424.7034912109375	-899.5371704101562	37.78600311279297	-430.3386840820312	-943.9537353515625	98.83554077148438	-422.47265625	-903.3710327148438	97.96269226074219	-519.9232788085938	-987.932373046875	239.7075347900391	-492.7172241210938	-730.4804077148438	482.9288330078125	-120.3269271850586	-780.751708984375	740.6796875	-82.68035888671875	-771.0924072265625	51.2939567565918	-181.4683380126953	-707.8446655273438	335.8718566894531	-132.9551849365234	-574.9201049804688	44.4022331237793	-119.485595703125	-612.9042358398438	47.38368606567383	-186.5048217773438	-679.6458740234375	47.49209976196289	-115.228645324707	-792.7035522460938	39.77901077270508	-247.9311676025391	
179	1.78	-854.11181640625	955.789794921875	-264.141357421875	-799.2872924804688	940.1260375976562	-373.7383117675781	-820.4100952148438	1024.902587890625	-326.0115966796875	-616.3502197265625	1178.642944335938	-228.0079345703125	-826.2998046875	1129.614135742188	-325.39794921875	-782.7160034179688	1358.835205078125	-301.6950378417969	-644.413818359375	1275.6875	-240.1465148925781	-867.9906005859375	1239.031860351562	-249.4459381103516	-771.1766967773438	1306.335815429688	-392.7274169921875	-653.8761596679688	1351.5302734375	-418.575927734375	-641.1074829101562	1226.488403320312	-482.4156494140625	-622.1998901367188	1017.984191894531	-509.4547424316406	-716.99853515625	1007.468078613281	-477.076904296875	-554.661865234375	829.593017578125	-453.5552673339844	-613.1409301757812	796.979248046875	-519.3986206054688	-607.134033203125	933.8008422851562	-509.3931274414062	-554.9939575195312	672.0819091796875	-450.3704833984375	-592.2538452148438	742.5742797851562	-508.629638671875	-539.382080078125	752.4427490234375	-472.0277709960938	-797.35693359375	1350.379760742188	-145.1825866699219	-846.0932006835938	1286.62646484375	-107.8623275756836	-915.182373046875	1027.47607421875	-89.52720642089844	-933.5652465820312	1020.488708496094	-154.3676910400391	-857.8128662109375	811.1472778320312	-60.05385589599609	-945.1384887695312	803.8712768554688	-83.47202301025391	-926.3154907226562	974.1712646484375	-85.23085021972656	-882.41943359375	653.2514038085938	-71.48974609375	-878.8309326171875	717.7067260742188	-41.20613479614258	-940.4133911132812	727.3473510742188	-74.50603485107422	-787.8602905273438	1506.823608398438	-204.6612854003906	-611.3433227539062	1576.58154296875	-269.1364135742188	-672.4910278320312	1566.105834960938	-157.5449676513672	-724.0768432617188	1515.8095703125	-350.6311340332031	-645.5050048828125	855.8905639648438	-433.9156799316406	-814.5426635742188	870.6010131835938	-96.97762298583984	-697.5593872070312	914.03076171875	-116.0743026733398	-596.2932739257812	900.6705932617188	-333.6579284667969	-609.3085327148438	435.9123840332031	-359.9611511230469	-605.6033935546875	594.9889526367188	-381.91552734375	-927.0056762695312	204.4412384033203	-526.7930297851562	-699.9628295898438	339.1664123535156	-414.9337768554688	-883.2889404296875	40.03807830810547	-423.9509582519531	-927.5039672851562	102.7381896972656	-414.4642944335938	-887.9567260742188	103.826416015625	-512.1570434570312	-972.1621704101562	245.0912322998047	-482.0426635742188	-728.5835571289062	482.4594116210938	-117.711051940918	-776.1212158203125	740.7568359375	-79.27517700195312	-771.1249389648438	51.21133041381836	-181.4356384277344	-707.0184936523438	335.337890625	-131.4580841064453	-574.9879760742188	44.20667266845703	-119.3321228027344	-612.9364624023438	47.35211944580078	-186.3660125732422	-679.7039794921875	47.2547607421875	-115.008659362793	-792.7173461914062	39.79998016357422	-247.9314117431641	
180	1.79	-848.639892578125	956.4524536132812	-260.2423706054688	-793.82666015625	940.1148681640625	-369.8197937011719	-815.0916137695312	1025.588134765625	-321.7216186523438	-609.78125	1179.283813476562	-224.4017791748047	-820.417724609375	1130.642822265625	-320.18896484375	-776.3792114257812	1359.696044921875	-296.6145629882812	-637.8855590820312	1276.305419921875	-236.2615051269531	-861.0088500976562	1239.686889648438	-243.2828216552734	-765.5921020507812	1307.15234375	-387.7440490722656	-648.4645385742188	1352.269287109375	-414.5692749023438	-636.30712890625	1227.149291992188	-478.3114929199219	-617.2032470703125	1018.506408691406	-505.0621643066406	-712.0333251953125	1007.99609375	-472.5068969726562	-548.2163696289062	831.4088745117188	-448.5917663574219	-606.5123291015625	797.9467163085938	-514.1561279296875	-601.7493286132812	934.759521484375	-504.6375732421875	-546.8277587890625	673.923583984375	-444.7475891113281	-584.9825439453125	743.8072509765625	-503.2329406738281	-532.2061767578125	754.3651733398438	-466.8001708984375	-789.6885986328125	1351.209594726562	-139.9429016113281	-837.9969482421875	1287.44482421875	-101.9024200439453	-905.8218994140625	1028.0703125	-81.25370025634766	-925.5707397460938	1020.641845703125	-145.6670074462891	-846.6747436523438	812.4723510742188	-51.56442642211914	-934.4061889648438	804.6590576171875	-73.20901489257812	-916.6123657226562	974.6840209960938	-76.52017974853516	-870.9549560546875	654.3726196289062	-60.76363754272461	-867.0018920898438	719.1885375976562	-31.25827217102051	-929.2293701171875	728.2630615234375	-63.45510482788086	-781.2567749023438	1507.295166015625	-200.0690765380859	-605.3336181640625	1577.74072265625	-265.326416015625	-666.0243530273438	1567.302368164062	-153.5042419433594	-718.0782470703125	1516.085693359375	-346.2024536132812	-639.609619140625	856.6441040039062	-429.8278198242188	-808.7757568359375	870.8417358398438	-93.19908142089844	-691.62548828125	914.6248779296875	-112.0189361572266	-590.4878540039062	902.0380249023438	-329.7254028320312	-592.72314453125	438.5641174316406	-350.9301452636719	-594.3603515625	597.0091552734375	-375.5762329101562	-911.0274047851562	209.177490234375	-516.5328979492188	-682.9285278320312	342.9485473632812	-405.022705078125	-864.8507080078125	42.48291015625	-416.4882507324219	-909.4675903320312	105.7753982543945	-405.5825500488281	-870.8497314453125	108.9304351806641	-503.4721984863281	-956.1947631835938	248.7939605712891	-470.945556640625	-726.5853881835938	481.9922485351562	-115.2528610229492	-771.3285522460938	740.7833251953125	-75.91508483886719	-771.131591796875	51.15298461914062	-181.4239044189453	-706.1043090820312	334.8227844238281	-130.114990234375	-575.0342407226562	44.06055450439453	-119.2234191894531	-612.967529296875	47.31240081787109	-186.2622833251953	-679.7412109375	47.07804107666016	-114.846794128418	-792.7186279296875	39.82275390625	-247.9493713378906	
181	1.8	-843.0534057617188	956.9822998046875	-256.325927734375	-788.2600708007812	940.2919311523438	-365.9434204101562	-809.65185546875	1026.3046875	-317.4416809082031	-603.2713623046875	1179.972290039062	-220.798583984375	-814.5757446289062	1131.691284179688	-315.2249450683594	-770.0228881835938	1360.582885742188	-291.6563720703125	-631.4308471679688	1276.973388671875	-232.4133148193359	-854.0098876953125	1240.398071289062	-237.3059387207031	-759.9373779296875	1308.015380859375	-382.8731079101562	-642.9423217773438	1353.0166015625	-410.5736083984375	-631.4298095703125	1227.854370117188	-474.2598266601562	-612.268310546875	1019.054504394531	-500.7169799804688	-707.0731811523438	1008.632263183594	-467.9918823242188	-541.8366088867188	833.3220825195312	-443.6201171875	-599.8751220703125	798.9730224609375	-508.9606018066406	-596.4078369140625	935.8238525390625	-499.9105834960938	-538.5840454101562	675.8942260742188	-439.0996398925781	-577.6358642578125	745.1357421875	-497.8757019042969	-525.04248046875	756.4138793945312	-461.5531005859375	-782.09033203125	1352.111938476562	-134.8687286376953	-829.9539184570312	1288.351318359375	-96.09096527099609	-896.180908203125	1028.703247070312	-72.99948120117188	-917.1852416992188	1020.708740234375	-136.7933197021484	-835.2664184570312	813.8297729492188	-43.16998672485352	-923.4365234375	805.549560546875	-62.82858657836914	-906.599609375	975.2495727539062	-67.78984832763672	-859.3548583984375	655.5736083984375	-50.01788711547852	-854.9439697265625	720.7493896484375	-21.32845115661621	-917.849365234375	729.3206787109375	-52.27779006958008	-774.5433349609375	1507.792236328125	-195.4936370849609	-599.195068359375	1578.85205078125	-261.5614013671875	-659.4188842773438	1568.454956054688	-149.5013885498047	-712.0021362304688	1516.374267578125	-341.8070068359375	-633.6488647460938	857.651123046875	-425.8359375	-803.020263671875	870.9735717773438	-89.4676513671875	-685.7493896484375	915.2017211914062	-107.9539260864258	-584.6737670898438	903.5217895507812	-325.7505493164062	-576.3885498046875	441.7066650390625	-341.8568115234375	-583.0467529296875	599.3670654296875	-369.2052917480469	-894.4523315429688	212.4078521728516	-505.7971801757812	-666.0424194335938	346.7503967285156	-395.0109558105469	-844.5135498046875	44.84281921386719	-407.971923828125	-890.0485229492188	107.8597030639648	-395.8981628417969	-852.2603759765625	113.0764465332031	-493.9415283203125	-939.953369140625	250.8174438476562	-459.5410766601562	-724.5001831054688	481.5150146484375	-112.9525146484375	-766.3687133789062	740.7412719726562	-72.57585906982422	-771.1053466796875	51.11994552612305	-181.4345092773438	-705.1096801757812	334.3244323730469	-128.9153442382812	-575.0523071289062	43.94045257568359	-119.14990234375	-612.991943359375	47.26116943359375	-186.1907958984375	-679.7529907226562	46.95112228393555	-114.7364959716797	-792.7042236328125	39.85000610351562	-247.9866790771484	
